<svg width="1600" height="920" viewBox="0 0 1600 920" fill="none" xmlns="http://www.w3.org/2000/svg">
  <defs>
    <filter id="softShadow" x="-20%" y="-20%" width="140%" height="140%">
      <feDropShadow dx="0" dy="22" stdDeviation="24" flood-color="#171717" flood-opacity="0.16"/>
    </filter>
    <filter id="lightShadow" x="-20%" y="-20%" width="140%" height="140%">
      <feDropShadow dx="0" dy="12" stdDeviation="16" flood-color="#171717" flood-opacity="0.1"/>
    </filter>
    <linearGradient id="paper" x1="0" y1="0" x2="1" y2="1">
      <stop stop-color="#FFFFFF"/>
      <stop offset="1" stop-color="#F9FBF7"/>
    </linearGradient>
    <linearGradient id="wash" x1="0" y1="0" x2="1" y2="1">
      <stop stop-color="#FFF9DC"/>
      <stop offset="0.58" stop-color="#FFF4B8"/>
      <stop offset="1" stop-color="#F8FFF9"/>
    </linearGradient>
  </defs>

  <rect width="1600" height="920" fill="url(#wash)"/>
  <path d="M0 96H1600M0 216H1600M0 336H1600M0 456H1600M0 576H1600M0 696H1600M0 816H1600M110 0V920M230 0V920M350 0V920M470 0V920M590 0V920M710 0V920M830 0V920M950 0V920M1070 0V920M1190 0V920M1310 0V920M1430 0V920M1550 0V920" stroke="#EBDFA9" stroke-width="2" opacity="0.68"/>
  <circle cx="1298" cy="150" r="140" fill="#E4F7F3" opacity="0.46"/>
  <circle cx="254" cy="740" r="190" fill="#FFF1A8" opacity="0.52"/>

  <g transform="translate(90 94)" filter="url(#softShadow)">
    <rect x="0" y="0" width="440" height="730" rx="34" fill="#171717"/>
    <rect x="18" y="18" width="404" height="694" rx="26" fill="#EDF4EF"/>
    <rect x="18" y="18" width="404" height="76" rx="26" fill="#FAFCFA"/>
    <rect x="18" y="72" width="404" height="22" fill="#FAFCFA"/>
    <circle cx="58" cy="56" r="13" fill="#0F8F7C"/>
    <text x="220" y="64" text-anchor="middle" fill="#18211F" font-family="Noto Sans SC, Microsoft YaHei, Arial" font-size="24" font-weight="900">微信督学群</text>
    <circle cx="378" cy="56" r="4.5" fill="#171717"/>
    <circle cx="394" cy="56" r="4.5" fill="#171717"/>

    <g transform="translate(36 124)">
      <circle cx="27" cy="27" r="27" fill="#FFD91A"/>
      <text x="27" y="36" text-anchor="middle" fill="#171717" font-family="Noto Sans SC, Microsoft YaHei, Arial" font-size="22" font-weight="900">督</text>
      <rect x="72" y="0" width="282" height="82" rx="16" fill="#FFFFFF"/>
      <text x="94" y="31" fill="#171717" font-family="Noto Sans SC, Microsoft YaHei, Arial" font-size="17" font-weight="900">早间计划已发</text>
      <text x="94" y="58" fill="#59635F" font-family="Noto Sans SC, Microsoft YaHei, Arial" font-size="14">听力精听 30 分钟 + 口语 Part 2</text>
    </g>

    <g transform="translate(58 230)">
      <rect x="78" y="0" width="260" height="76" rx="16" fill="#CDEFE5"/>
      <text x="100" y="30" fill="#16221F" font-family="Noto Sans SC, Microsoft YaHei, Arial" font-size="17" font-weight="900">收到，已完成听力</text>
      <text x="100" y="56" fill="#4A615C" font-family="Noto Sans SC, Microsoft YaHei, Arial" font-size="14">错题截图已上传到表格</text>
      <circle cx="370" cy="24" r="24" fill="#FFFFFF"/>
      <text x="370" y="32" text-anchor="middle" fill="#0F8F7C" font-family="Noto Sans SC, Microsoft YaHei, Arial" font-size="19" font-weight="900">我</text>
    </g>

    <g transform="translate(36 340)">
      <circle cx="27" cy="27" r="27" fill="#FFD91A"/>
      <text x="27" y="36" text-anchor="middle" fill="#171717" font-family="Noto Sans SC, Microsoft YaHei, Arial" font-size="22" font-weight="900">督</text>
      <rect x="72" y="0" width="286" height="112" rx="16" fill="#FFFFFF"/>
      <text x="94" y="31" fill="#171717" font-family="Noto Sans SC, Microsoft YaHei, Arial" font-size="17" font-weight="900">晚上复盘口语</text>
      <text x="94" y="58" fill="#59635F" font-family="Noto Sans SC, Microsoft YaHei, Arial" font-size="14">外教模拟：work / study / hometown</text>
      <rect x="94" y="76" width="166" height="13" rx="7" fill="#FFD91A"/>
    </g>

    <g transform="translate(60 486)">
      <rect width="322" height="106" rx="18" fill="#FFFFFF"/>
      <text x="24" y="38" fill="#171717" font-family="Noto Sans SC, Microsoft YaHei, Arial" font-size="18" font-weight="900">今日进度</text>
      <rect x="24" y="60" width="220" height="14" rx="7" fill="#E5DEB7"/>
      <rect x="24" y="60" width="168" height="14" rx="7" fill="#0F8F7C"/>
      <text x="258" y="75" fill="#171717" font-family="Arial" font-size="18" font-weight="800">76%</text>
    </g>

    <g transform="translate(60 622)">
      <rect width="322" height="54" rx="16" fill="#FFFFFF"/>
      <circle cx="30" cy="27" r="10" fill="#0F8F7C"/>
      <text x="52" y="32" fill="#171717" font-family="Noto Sans SC, Microsoft YaHei, Arial" font-size="15" font-weight="900">晚间提醒 21:00｜作文提纲检查</text>
    </g>
  </g>

  <g transform="translate(500 70) rotate(2.5 435 250)" filter="url(#softShadow)">
    <rect x="0" y="0" width="870" height="508" rx="18" fill="url(#paper)" stroke="#171717" stroke-opacity="0.12" stroke-width="2"/>
    <rect x="0" y="0" width="870" height="58" rx="18" fill="#0F8F7C"/>
    <rect x="0" y="40" width="870" height="18" fill="#0F8F7C"/>
    <text x="30" y="38" fill="#FFFFFF" font-family="Noto Sans SC, Microsoft YaHei, Arial" font-size="22" font-weight="900">Excel 每日计划表</text>
    <text x="704" y="37" fill="#D9FFF7" font-family="Arial" font-size="15" font-weight="700">Week 02</text>
    <circle cx="816" cy="29" r="6" fill="#FFFFFF" opacity="0.7"/>
    <circle cx="838" cy="29" r="6" fill="#FFFFFF" opacity="0.7"/>

    <g transform="translate(28 82)">
      <rect width="814" height="354" rx="10" fill="#FFFFFF" stroke="#DADADA"/>
      <rect width="814" height="44" rx="10" fill="#E4F7F3"/>
      <text x="24" y="29" fill="#171717" font-family="Noto Sans SC, Microsoft YaHei, Arial" font-size="15" font-weight="900">日期</text>
      <text x="118" y="29" fill="#171717" font-family="Noto Sans SC, Microsoft YaHei, Arial" font-size="15" font-weight="900">任务</text>
      <text x="390" y="29" fill="#171717" font-family="Noto Sans SC, Microsoft YaHei, Arial" font-size="15" font-weight="900">材料</text>
      <text x="552" y="29" fill="#171717" font-family="Noto Sans SC, Microsoft YaHei, Arial" font-size="15" font-weight="900">反馈</text>
      <text x="716" y="29" fill="#171717" font-family="Noto Sans SC, Microsoft YaHei, Arial" font-size="15" font-weight="900">状态</text>
      <path d="M0 44H814M0 92H814M0 140H814M0 188H814M0 236H814M0 284H814M0 332H814M94 0V354M366 0V354M528 0V354M690 0V354" stroke="#E7E7E7"/>

      <text x="22" y="75" fill="#454545" font-family="Arial" font-size="15">Day 08</text>
      <text x="116" y="75" fill="#171717" font-family="Noto Sans SC, Microsoft YaHei, Arial" font-size="15">入学诊断复盘 + 目标拆解</text>
      <text x="388" y="75" fill="#5B625F" font-family="Noto Sans SC, Microsoft YaHei, Arial" font-size="14">诊断报告</text>
      <text x="550" y="75" fill="#5B625F" font-family="Noto Sans SC, Microsoft YaHei, Arial" font-size="14">问题定位清楚</text>
      <rect x="706" y="57" width="78" height="24" rx="12" fill="#FFD91A"/>
      <text x="745" y="75" text-anchor="middle" fill="#171717" font-family="Noto Sans SC, Microsoft YaHei, Arial" font-size="13" font-weight="900">已跟进</text>

      <text x="22" y="123" fill="#454545" font-family="Arial" font-size="15">Day 09</text>
      <text x="116" y="123" fill="#171717" font-family="Noto Sans SC, Microsoft YaHei, Arial" font-size="15">听力 Section 3 精听</text>
      <text x="388" y="123" fill="#5B625F" font-family="Noto Sans SC, Microsoft YaHei, Arial" font-size="14">Cam 18 T2</text>
      <text x="550" y="123" fill="#5B625F" font-family="Noto Sans SC, Microsoft YaHei, Arial" font-size="14">错题 4 个</text>
      <rect x="706" y="105" width="78" height="24" rx="12" fill="#CDEFE5"/>
      <text x="745" y="123" text-anchor="middle" fill="#0A6F62" font-family="Noto Sans SC, Microsoft YaHei, Arial" font-size="13" font-weight="900">进行中</text>

      <text x="22" y="171" fill="#454545" font-family="Arial" font-size="15">Day 10</text>
      <text x="116" y="171" fill="#171717" font-family="Noto Sans SC, Microsoft YaHei, Arial" font-size="15">口语 Part 2：工作经历</text>
      <text x="388" y="171" fill="#5B625F" font-family="Noto Sans SC, Microsoft YaHei, Arial" font-size="14">外教题卡</text>
      <text x="550" y="171" fill="#5B625F" font-family="Noto Sans SC, Microsoft YaHei, Arial" font-size="14">今晚复盘</text>
      <rect x="706" y="153" width="78" height="24" rx="12" fill="#F1F1F1"/>
      <text x="745" y="171" text-anchor="middle" fill="#545454" font-family="Noto Sans SC, Microsoft YaHei, Arial" font-size="13" font-weight="900">待完成</text>

      <text x="22" y="219" fill="#454545" font-family="Arial" font-size="15">Day 11</text>
      <text x="116" y="219" fill="#171717" font-family="Noto Sans SC, Microsoft YaHei, Arial" font-size="15">阅读定位题 + 长难句复盘</text>
      <text x="388" y="219" fill="#5B625F" font-family="Noto Sans SC, Microsoft YaHei, Arial" font-size="14">错题本</text>
      <text x="550" y="219" fill="#5B625F" font-family="Noto Sans SC, Microsoft YaHei, Arial" font-size="14">待反馈</text>
      <rect x="706" y="201" width="78" height="24" rx="12" fill="#F1F1F1"/>
      <text x="745" y="219" text-anchor="middle" fill="#545454" font-family="Noto Sans SC, Microsoft YaHei, Arial" font-size="13" font-weight="900">待完成</text>

      <text x="22" y="267" fill="#454545" font-family="Arial" font-size="15">Day 12</text>
      <text x="116" y="267" fill="#171717" font-family="Noto Sans SC, Microsoft YaHei, Arial" font-size="15">写作 Task 2 审题 + 提纲</text>
      <text x="388" y="267" fill="#5B625F" font-family="Noto Sans SC, Microsoft YaHei, Arial" font-size="14">范文拆解</text>
      <text x="550" y="267" fill="#5B625F" font-family="Noto Sans SC, Microsoft YaHei, Arial" font-size="14">中教批注</text>
      <rect x="706" y="249" width="78" height="24" rx="12" fill="#F1F1F1"/>
      <text x="745" y="267" text-anchor="middle" fill="#545454" font-family="Noto Sans SC, Microsoft YaHei, Arial" font-size="13" font-weight="900">待完成</text>

      <text x="22" y="315" fill="#454545" font-family="Arial" font-size="15">Day 13</text>
      <text x="116" y="315" fill="#171717" font-family="Noto Sans SC, Microsoft YaHei, Arial" font-size="15">模考错题整理 + 周复盘</text>
      <text x="388" y="315" fill="#5B625F" font-family="Noto Sans SC, Microsoft YaHei, Arial" font-size="14">周报</text>
      <text x="550" y="315" fill="#5B625F" font-family="Noto Sans SC, Microsoft YaHei, Arial" font-size="14">调整下周节奏</text>
      <rect x="706" y="297" width="78" height="24" rx="12" fill="#F1F1F1"/>
      <text x="745" y="315" text-anchor="middle" fill="#545454" font-family="Noto Sans SC, Microsoft YaHei, Arial" font-size="13" font-weight="900">待完成</text>
    </g>
  </g>

  <g transform="translate(605 494) rotate(-3.2 415 165)" filter="url(#softShadow)">
    <rect x="0" y="0" width="830" height="342" rx="18" fill="url(#paper)" stroke="#171717" stroke-opacity="0.12" stroke-width="2"/>
    <rect x="0" y="0" width="830" height="58" rx="18" fill="#3F6DF6"/>
    <rect x="0" y="40" width="830" height="18" fill="#3F6DF6"/>
    <text x="30" y="38" fill="#FFFFFF" font-family="Noto Sans SC, Microsoft YaHei, Arial" font-size="22" font-weight="900">Word 定制备考计划</text>
    <text x="676" y="37" fill="#E8EFFF" font-family="Arial" font-size="15" font-weight="700">Version 2.1</text>

    <text x="54" y="108" fill="#171717" font-family="Noto Sans SC, Microsoft YaHei, Arial" font-size="30" font-weight="900">雅思 28 天定制计划</text>
    <rect x="54" y="130" width="268" height="10" rx="5" fill="#FFD91A"/>
    <text x="54" y="176" fill="#3E4543" font-family="Noto Sans SC, Microsoft YaHei, Arial" font-size="18" font-weight="900">目标：总分 7.0｜口语 6.5+｜考试：9 月下旬</text>
    <text x="54" y="216" fill="#171717" font-family="Noto Sans SC, Microsoft YaHei, Arial" font-size="18" font-weight="900">阶段重点</text>
    <rect x="54" y="236" width="328" height="14" rx="7" fill="#E6E0BC"/>
    <rect x="54" y="266" width="410" height="14" rx="7" fill="#E6E0BC"/>
    <rect x="54" y="296" width="246" height="14" rx="7" fill="#E6E0BC"/>

    <g transform="translate(520 92)" filter="url(#lightShadow)">
      <rect width="230" height="206" rx="12" fill="#FFF9DC" stroke="#ECE3BF"/>
      <text x="24" y="42" fill="#171717" font-family="Noto Sans SC, Microsoft YaHei, Arial" font-size="18" font-weight="900">本周安排</text>
      <circle cx="34" cy="82" r="7" fill="#0F8F7C"/>
      <text x="54" y="88" fill="#454545" font-family="Noto Sans SC, Microsoft YaHei, Arial" font-size="15">诊断复盘</text>
      <circle cx="34" cy="118" r="7" fill="#FFD91A"/>
      <text x="54" y="124" fill="#454545" font-family="Noto Sans SC, Microsoft YaHei, Arial" font-size="15">每日打卡</text>
      <circle cx="34" cy="154" r="7" fill="#3F6DF6"/>
      <text x="54" y="160" fill="#454545" font-family="Noto Sans SC, Microsoft YaHei, Arial" font-size="15">外教陪练</text>
      <circle cx="34" cy="188" r="7" fill="#FF5A3C"/>
      <text x="54" y="194" fill="#454545" font-family="Noto Sans SC, Microsoft YaHei, Arial" font-size="15">作文精批</text>
    </g>
  </g>
</svg>
